<svg version="1.2" xmlns="http://www.w3.org/2000/svg" viewBox="0 0 1555 305" width="1555" height="305">
	<title>Ooredoo_logo-svg</title>
	<defs>
		<clipPath clipPathUnits="userSpaceOnUse" id="cp1">
			<path d="m0 0h1554v304h-1554z"/>
		</clipPath>
	</defs>
	<style>
		.s0 { fill: #ed1c24 } 
	</style>
	<g id="Clip-Path: Group_126552" clip-path="url(#cp1)">
		<g id="Group_126552">
			<path id="Path_184497" class="s0" d="m1554 63.5c0 16.3-9.8 31.1-24.9 37.3-15.1 6.3-32.5 2.8-44-8.8-11.5-11.5-15-28.9-8.8-44 6.3-15.1 21-24.9 37.3-24.9 5.3 0 10.6 1 15.5 3.1 4.9 2 9.3 5 13.1 8.7 3.7 3.8 6.7 8.2 8.7 13.1 2.1 4.9 3.1 10.2 3.1 15.5z"/>
			<path id="Path_184498" fill-rule="evenodd" class="s0" d="m1197.4 88.3c13.6 5.7 26 13.9 36.4 24.3 10.4 10.4 18.6 22.8 24.2 36.4 5.7 13.6 8.6 28.1 8.6 42.8 0 45.4-27.3 86.2-69.1 103.6-41.9 17.3-90.1 7.7-122.1-24.3-32-32.1-41.6-80.3-24.3-122.2 17.4-41.8 58.2-69.1 103.5-69.1 14.7 0 29.3 2.9 42.8 8.5zm13.9 80c-3.1-7.4-7.6-14.2-13.3-19.9-5.7-5.7-12.5-10.2-19.9-13.3-7.5-3.1-15.4-4.7-23.5-4.7-24.8 0-47.2 14.9-56.7 37.9-9.5 22.9-4.3 49.3 13.3 66.9 17.5 17.6 43.9 22.8 66.8 13.3 23-9.5 37.9-31.8 37.9-56.7 0-8-1.6-16-4.6-23.5z"/>
			<path id="Path_184499" fill-rule="evenodd" class="s0" d="m1421.5 88.3c13.6 5.7 25.9 13.9 36.3 24.3 10.4 10.4 18.7 22.8 24.3 36.4 5.7 13.6 8.6 28.1 8.6 42.8 0 45.4-27.3 86.2-69.1 103.6-41.9 17.3-90.1 7.7-122.1-24.3-32-32.1-41.6-80.3-24.3-122.2 17.3-41.8 58.2-69.1 103.5-69.1 14.7 0 29.2 2.9 42.8 8.5zm13.9 80c-3.1-7.4-7.6-14.2-13.3-19.9-5.7-5.7-12.5-10.2-19.9-13.3-7.5-3.1-15.5-4.7-23.5-4.7-24.8 0-47.2 14.9-56.7 37.9-9.5 22.9-4.3 49.3 13.3 66.9 17.5 17.6 43.9 22.8 66.8 13.3 23-9.5 37.9-31.8 37.9-56.7 0-8-1.6-16-4.6-23.5z"/>
			<path id="Path_184500" fill-rule="evenodd" class="s0" d="m379 88.4c13.6 5.6 25.9 13.9 36.3 24.3 10.4 10.4 18.6 22.7 24.2 36.3 5.7 13.6 8.6 28.1 8.6 42.8 0 45.4-27.3 86.2-69.1 103.6-41.9 17.3-90.1 7.7-122.1-24.3-32-32.1-41.6-80.3-24.3-122.2 17.4-41.9 58.3-69.2 103.6-69.1 14.7 0 29.2 2.9 42.8 8.6zm13.8 79.9c-3.1-7.4-7.6-14.2-13.3-19.9-5.7-5.7-12.4-10.2-19.9-13.3-7.4-3.1-15.4-4.7-23.4-4.7-24.9 0-47.2 14.9-56.8 37.9-9.5 22.9-4.2 49.3 13.3 66.9 17.6 17.6 43.9 22.8 66.9 13.3 22.9-9.5 37.9-31.8 37.9-56.7 0-8-1.6-16-4.7-23.5z"/>
			<path id="Path_184501" fill-rule="evenodd" class="s0" d="m154.9 88.3c13.6 5.7 25.9 13.9 36.3 24.3 10.4 10.4 18.7 22.8 24.3 36.4 5.7 13.6 8.6 28.1 8.6 42.8 0 45.4-27.3 86.2-69.1 103.6-41.9 17.3-90.1 7.7-122.1-24.3-32-32.1-41.6-80.3-24.3-122.2 17.3-41.8 58.2-69.1 103.5-69.1 14.7 0 29.2 2.9 42.8 8.5zm13.9 80c-3.1-7.4-7.6-14.2-13.3-19.9-5.7-5.7-12.5-10.2-19.9-13.3-7.5-3.1-15.5-4.7-23.5-4.7-24.8 0-47.2 14.9-56.8 37.9-9.5 22.9-4.2 49.4 13.3 66.9 17.6 17.6 44 22.9 66.9 13.4 23-9.5 38-31.9 38-56.8 0-8-1.6-16-4.7-23.5z"/>
			<path id="Path_184502" fill-rule="evenodd" class="s0" d="m1033.9 1.1c1.7 0.7 3.3 1.8 4.6 3.2 1.4 1.3 2.4 2.9 3.2 4.6 0.7 1.8 1.1 3.7 1.1 5.6l-0.3 177.3c0.1 51-34.3 95.6-83.6 108.5-49.2 12.9-101-9.1-126-53.6-24.9-44.4-16.7-100.1 20-135.5 36.7-35.3 92.6-41.4 136.1-14.9l2.9 1.8 0.1-83.6c0-1.9 0.4-3.8 1.1-5.6 0.8-1.7 1.8-3.3 3.2-4.7 1.3-1.3 2.9-2.4 4.7-3.1 1.7-0.7 3.6-1.1 5.5-1.1h21.8c1.9 0 3.8 0.4 5.6 1.1zm-46.6 167.3c-3.1-7.5-7.6-14.3-13.3-20-5.7-5.7-12.5-10.2-19.9-13.3-7.5-3.1-15.4-4.7-23.5-4.7h-0.9c-7.9 0.3-15.6 2-22.8 5.2-7.3 3.1-13.8 7.6-19.4 13.1-5.5 5.6-10 12.2-13.1 19.4-3.1 7.2-4.9 14.9-5.1 22.8-0.2 8.1 1.3 16.2 4.4 23.8 3 7.5 7.5 14.4 13.2 20.2 5.7 5.8 12.5 10.4 20 13.6 7.5 3.2 15.5 4.8 23.7 4.8 8 0 16-1.6 23.5-4.7 7.4-3.1 14.2-7.6 19.9-13.3 5.7-5.7 10.2-12.5 13.3-20 3.1-7.4 4.7-15.4 4.7-23.5 0-8-1.6-16-4.7-23.4z"/>
			<path id="Path_184503" class="s0" d="m595 140.5c-4.1-2.9-8.4-5.3-13-7.1-4.6-1.8-9.4-3.1-14.3-3.7-4.9-0.7-9.9-0.8-14.8-0.3-7.4 0.6-14.6 2.6-21.3 5.8-6.6 3.3-12.6 7.8-17.5 13.3-5 5.5-8.9 11.9-11.5 18.8-2.6 6.9-3.8 14.3-3.6 21.7l-1.1 101.5c0 1.7-0.3 3.4-0.9 4.9-0.7 1.6-1.6 3-2.8 4.2-1.2 1.2-2.6 2.1-4.2 2.8-1.5 0.6-3.2 0.9-4.9 0.9h-24.5c-1.6 0-3.2-0.3-4.8-0.9-1.5-0.6-2.9-1.6-4-2.7-1.2-1.2-2.1-2.6-2.8-4.1-0.6-1.5-0.9-3.2-0.9-4.8v-195.2c0-1.7 0.3-3.4 1-5 0.6-1.5 1.6-2.9 2.7-4.1 1.2-1.2 2.6-2.1 4.2-2.8 1.6-0.6 3.2-1 4.9-1h24.4c1.7 0 3.3 0.3 4.8 1 1.5 0.6 2.9 1.5 4.1 2.7 1.2 1.2 2.1 2.6 2.7 4.1 0.6 1.5 1 3.1 1 4.8v5.8q5.4-4.4 11.5-8.1 6-3.6 12.5-6.4 6.5-2.7 13.4-4.4 6.8-1.8 13.8-2.5c7.8-0.8 15.7-0.7 23.4 0.2 7.8 1 15.4 2.8 22.7 5.5 7.4 2.7 14.4 6.2 21 10.4 6.6 4.2 12.7 9.2 18.1 14.8q-4.5 4.2-8.5 8.9-4 4.8-7.5 9.9-3.5 5.1-6.4 10.6-2.9 5.5-5.2 11.3l-0.8-0.9c-3.2-3.7-6.9-7.1-10.9-9.9z"/>
			<path id="Path_184504" fill-rule="evenodd" class="s0" d="m799.8 257.9q0.8 0.8 1.4 1.7 0.7 1 1.1 2.1 0.4 1 0.5 2.2 0.2 1.1 0 2.1-0.1 1.1-0.5 2.1-0.4 1-1 1.9-0.6 0.9-1.4 1.6l-7.9 7.2q-0.1 0.1-0.2 0.1-0.1 0.1-0.2 0.2-0.1 0.1-0.2 0.1-0.1 0.1-0.3 0.1l-0.3 0.2c-5.1 4-10.5 7.5-16.2 10.6-5.8 3.1-11.7 5.6-17.8 7.7-6.2 2.1-12.5 3.6-18.9 4.7-6.4 1-12.8 1.5-19.3 1.4-1.3 0.1-2.6 0.1-3.9 0.1-3.5 0-6.8-0.1-10.2-0.3l-6.1-0.5c-13.7-1.5-27-5.5-39.2-11.8-12.2-6.3-23.2-14.8-32.3-25.1-9.1-10.3-16.3-22.2-21.1-35.1-4.8-12.9-7.1-26.6-7-40.3 0.3-14.3 3.2-28.3 8.7-41.5 5.4-13.1 13.3-25.1 23.2-35.3 9.9-10.2 21.7-18.5 34.6-24.4 13-5.8 26.9-9.2 41.1-9.9 13.2-0.5 26.4 1.3 39 5.4 12.5 4.1 24.3 10.3 34.6 18.5 10.4 8.2 19.3 18.1 26.2 29.3 7 11.3 11.9 23.6 14.5 36.6q-0.3 1.4-0.6 2.9-0.2 1.4-0.4 2.9-0.3 1.4-0.4 2.9-0.2 1.4-0.4 2.9-0.3 4.1-0.4 8.2-0.1 4.1 0.1 8.2 0.2 4.1 0.7 8.2 0.5 4.1 1.3 8.1l-166.7-0.1 2.7 6.7c2.2 4 4.7 7.8 7.7 11.3 3 3.5 6.3 6.6 10 9.3 3.7 2.8 7.6 5.1 11.8 6.9 4.2 1.9 8.6 3.2 13.1 4.1q2 0.4 4 0.7 2.1 0.2 4.2 0.4 2 0.2 4.1 0.3 2 0.1 4.1 0.1l2.8-0.1q4.3-0.1 8.6-0.7 4.2-0.6 8.4-1.8 4.2-1.2 8.2-2.8 4-1.7 7.7-3.9l5.3-3.4q1.2-1 2.7-1.5 1.4-0.6 2.9-0.7 1.6-0.1 3.1 0.3 1.5 0.3 2.8 1.1l29.8 16.5q1 0.5 1.9 1.3zm-106.7-124.9c-5.7 1.8-11.2 4.3-16.2 7.7-5 3.3-9.5 7.3-13.3 12-3.8 4.6-6.9 9.8-9.2 15.3l112.9 0.2c-2.3-5.6-5.4-10.8-9.2-15.5-3.8-4.6-8.3-8.7-13.3-12-5-3.4-10.4-5.9-16.2-7.7-5.7-1.7-11.7-2.6-17.7-2.5-6-0.1-12 0.8-17.8 2.5z"/>
		</g>
	</g>
</svg>